HIERARCHY
ROOT Hips
{
	OFFSET 0.000000 0.000000 0.000000
	CHANNELS 6 Xposition Yposition Zposition Xrotation Yrotation Zrotation
	JOINT LeftUpLeg_virtual
	{
		OFFSET 0.000000 0.000000 0.000000
		CHANNELS 3 Xrotation Yrotation Zrotation
		JOINT LeftUpLeg
		{
			OFFSET 15.427100 -6.655098 0.678600
			CHANNELS 3 Xrotation Yrotation Zrotation
			JOINT LeftLeg
			{
				OFFSET 4.081073 -39.591068 13.024000
				CHANNELS 3 Xrotation Yrotation Zrotation
				JOINT LeftFoot
				{
					OFFSET -4.081074 -37.707932 -15.979700
					CHANNELS 3 Xrotation Yrotation Zrotation
					JOINT LeftToeBase
					{
						OFFSET 5.346399 -15.068900 20.645000
						CHANNELS 3 Xrotation Yrotation Zrotation
						JOINT LeftToe_End
						{
							OFFSET 2.754700 0.931300 11.300900
							CHANNELS 3 Xrotation Yrotation Zrotation
							End Site
							{
								OFFSET 0 0 0
							}
						}
					}
				}
			}
		}
	}
	JOINT RightUpLeg_virtual
	{
		OFFSET 0.000000 0.000000 0.000000
		CHANNELS 3 Xrotation Yrotation Zrotation
		JOINT RightUpLeg
		{
			OFFSET -15.569500 -6.655098 0.678600
			CHANNELS 3 Xrotation Yrotation Zrotation
			JOINT RightLeg
			{
				OFFSET -4.081825 -39.591045 13.023800
				CHANNELS 3 Xrotation Yrotation Zrotation
				JOINT RightFoot
				{
					OFFSET 4.081824 -37.707954 -15.979600
					CHANNELS 3 Xrotation Yrotation Zrotation
					JOINT RightToeBase
					{
						OFFSET -5.346400 -15.068900 20.645000
						CHANNELS 3 Xrotation Yrotation Zrotation
						JOINT RightToe_End
						{
							OFFSET -2.754700 0.931300 11.300900
							CHANNELS 3 Xrotation Yrotation Zrotation
							End Site
							{
								OFFSET 0 0 0
							}
						}
					}
				}
			}
		}
	}
	JOINT Spine_virtual
	{
		OFFSET 0.000000 0.000000 0.000000
		CHANNELS 3 Xrotation Yrotation Zrotation
		JOINT Spine
		{
			OFFSET -0.279200 12.230698 -2.892100
			CHANNELS 3 Xrotation Yrotation Zrotation
			JOINT Spine1
			{
				OFFSET -0.232667 10.192268 -1.242267
				CHANNELS 3 Xrotation Yrotation Zrotation
				JOINT Spine1_split
				{
					OFFSET -0.232667 10.192268 -1.242267
					CHANNELS 3 Xrotation Yrotation Zrotation
					JOINT Spine2
					{
						OFFSET -0.232667 10.192268 -1.242267
						CHANNELS 3 Xrotation Yrotation Zrotation
						JOINT Neck_virtual
						{
							OFFSET 0.000000 0.000000 0.000000
							CHANNELS 3 Xrotation Yrotation Zrotation
							JOINT Neck
							{
								OFFSET -0.418800 17.814194 8.416900
								CHANNELS 3 Xrotation Yrotation Zrotation
								JOINT Head
								{
									OFFSET 0.000000 7.031097 3.806800
									CHANNELS 3 Xrotation Yrotation Zrotation
									JOINT HeadTop_End
									{
										OFFSET 0.000000 24.646606 12.978600
										CHANNELS 3 Xrotation Yrotation Zrotation
										End Site
										{
											OFFSET 0 0 0
										}
									}
								}
							}
						}
						JOINT LeftShoulder_virtual
						{
							OFFSET 0.000000 0.000000 0.000000
							CHANNELS 3 Xrotation Yrotation Zrotation
							JOINT LeftShoulder
							{
								OFFSET 8.476499 7.247704 -3.868750
								CHANNELS 3 Xrotation Yrotation Zrotation
								JOINT LeftShoulder_split
								{
									OFFSET 8.476499 7.247704 -3.868750
									CHANNELS 3 Xrotation Yrotation Zrotation
									JOINT LeftArm
									{
										OFFSET 9.308998 -2.777710 0.208600
										CHANNELS 3 Xrotation Yrotation Zrotation
										JOINT LeftForeArm
										{
											OFFSET 29.972298 0.000000 0.000000
											CHANNELS 3 Xrotation Yrotation Zrotation
											JOINT LeftHand
											{
												OFFSET 26.026505 0.000000 0.000000
												CHANNELS 3 Xrotation Yrotation Zrotation
												End Site
												{
													OFFSET 0 0 0
												}
											}
										}
									}
								}
							}
						}
						JOINT RightShoulder_virtual
						{
							OFFSET 0.000000 0.000000 0.000000
							CHANNELS 3 Xrotation Yrotation Zrotation
							JOINT RightShoulder
							{
								OFFSET -7.570500 7.247704 -3.868750
								CHANNELS 3 Xrotation Yrotation Zrotation
								JOINT RightShoulder_split
								{
									OFFSET -7.570500 7.247704 -3.868750
									CHANNELS 3 Xrotation Yrotation Zrotation
									JOINT RightArm
									{
										OFFSET -9.308998 -2.777710 0.208500
										CHANNELS 3 Xrotation Yrotation Zrotation
										JOINT RightForeArm
										{
											OFFSET -29.972300 0.000000 0.000000
											CHANNELS 3 Xrotation Yrotation Zrotation
											JOINT RightHand
											{
												OFFSET -26.026505 0.000000 0.000000
												CHANNELS 3 Xrotation Yrotation Zrotation
												End Site
												{
													OFFSET 0 0 0
												}
											}
										}
									}
								}
							}
						}
					}
				}
			}
		}
	}
}
MOTION
Frames: 6
Frame Time: 0.03333333
109.791924 103.492081 196.757874 0.000000 0.000000 0.000000 -126.782217 -62.442484 163.296053 -44.402438 5.637997 18.735692 76.655684 0.195672 -5.629875 -1.727704 -11.079635 -0.955294 -1.156516 -0.041375 -3.081231 0.000000 0.000000 0.000000 -113.437271 -71.891566 173.421003 -55.630941 4.588776 -48.147591 61.243670 13.528206 -1.826927 -7.817467 -2.956841 16.956329 6.435245 0.342104 -3.344256 0.000000 0.000000 0.000000 -123.556852 -64.488078 168.807415 14.913056 4.650643 1.071917 -2.708720 1.849965 6.996931 0.227382 -0.237421 1.670487 0.000000 0.000000 0.000000 1.353803 1.826855 5.425070 18.019026 3.887768 10.859805 19.915121 36.413747 -22.227362 0.000000 0.000000 0.000000 0.346020 1.790930 6.345660 2.125140 -6.511402 6.300055 4.352265 0.661177 1.493931 -5.312014 10.329358 1.356079 2.292556 -37.867395 -1.304094 0.000000 0.000000 0.000000 -1.531470 1.943005 6.097753 3.767542 2.575472 17.378889 -0.382390 1.158022 1.161488 -14.733717 23.051188 13.114775 1.626680 19.556097 -3.106039 0.000000 0.000000 0.000000 
116.726784 96.512741 207.405457 0.000000 0.000000 0.000000 -124.419231 -59.186765 165.328376 -43.460162 5.099081 14.935698 75.381226 2.316522 -3.190455 2.150242 -8.156452 0.033340 -0.211906 0.069509 -3.012644 0.000000 0.000000 0.000000 -112.935382 -66.565029 172.845942 -57.263206 4.632670 -44.127168 56.014948 11.910111 -1.666732 -0.090021 -3.202144 15.872105 3.147046 -0.012878 -2.367028 0.000000 0.000000 0.000000 -122.990001 -60.375614 168.056572 16.054563 5.006690 0.437010 -1.827871 2.696284 6.222230 0.256684 0.208948 2.497415 0.000000 0.000000 0.000000 1.283036 2.645417 4.439250 18.046237 3.943330 9.074559 18.724993 34.653644 -21.172909 0.000000 0.000000 0.000000 0.617928 2.566955 5.237360 2.329681 -6.312910 6.063776 3.213748 2.199791 0.966774 -7.243726 15.123108 2.692362 2.962036 -38.671339 -0.621327 0.000000 0.000000 0.000000 -1.261201 2.872224 5.163916 3.466919 5.117860 18.606818 -0.813604 -0.781323 1.061894 -15.836827 22.482215 16.232836 2.204127 26.897181 -2.535975 0.000000 0.000000 0.000000 
123.303772 87.009689 219.218994 0.000000 0.000000 0.000000 -121.189276 -53.081222 168.634543 -41.329997 6.062150 12.826985 72.271324 4.425081 -0.970193 3.794459 -3.510480 0.125687 0.294927 0.261220 -2.891331 0.000000 0.000000 0.000000 -113.269166 -58.310636 171.514820 -60.984840 7.876140 -38.389382 50.264134 9.755931 -2.309244 7.743536 -2.306972 15.948879 0.696110 -0.530436 -1.368310 0.000000 0.000000 0.000000 -120.703076 -54.086048 169.728084 17.379116 4.786217 0.186150 -0.831723 3.428531 5.926296 0.524770 0.566868 2.935079 0.000000 0.000000 0.000000 1.319108 3.445830 4.074339 17.594762 3.834007 7.463333 16.596574 32.582895 -19.711625 0.000000 0.000000 0.000000 0.975388 3.296118 4.852894 2.437681 -5.020258 4.846058 2.811595 4.091537 -0.540799 -9.507246 21.097233 3.231036 2.748717 -45.884234 -0.661554 0.000000 0.000000 0.000000 -1.020222 3.700077 4.896281 3.227281 6.871283 19.558686 -1.188761 -1.659715 1.252818 -18.093395 20.460002 20.111195 2.146600 37.370164 -1.387881 0.000000 0.000000 0.000000 
129.464493 75.171219 231.588593 0.000000 0.000000 0.000000 -118.409485 -43.848237 171.648022 -38.319892 9.344040 12.848037 67.297868 5.229059 0.536825 2.414694 1.206454 -1.035416 0.271515 0.409745 -2.319367 0.000000 0.000000 0.000000 -113.490847 -47.662105 170.264212 -68.065130 13.113529 -30.761673 45.147783 7.960685 -3.484066 14.253351 -0.006439 16.942192 0.492598 -0.979432 -0.833280 0.000000 0.000000 0.000000 -117.960591 -45.656157 172.246470 18.723096 3.781772 0.147743 0.219806 3.884262 6.195486 0.822784 -0.581079 2.576001 0.000000 0.000000 0.000000 1.572264 4.085017 4.399437 17.066691 3.480841 6.241455 13.819757 29.894724 -17.929008 0.000000 0.000000 0.000000 1.417765 3.896936 5.286210 2.647847 -3.601122 2.569227 3.353961 5.390644 -2.239589 -10.838370 26.483968 2.315615 2.093157 -57.381451 -1.276712 0.000000 0.000000 0.000000 -0.766210 4.319869 5.413268 3.174444 7.407381 20.222063 -1.535672 -1.331660 1.397331 -20.382920 17.510795 24.357143 0.773710 48.630216 0.707333 0.000000 0.000000 0.000000 
135.376343 62.517788 243.731750 0.000000 0.000000 0.000000 -116.506170 -32.429564 173.564314 -36.442143 15.151361 15.625813 62.259094 3.992519 0.337455 -1.393364 4.950656 -3.024563 0.320462 0.576970 -1.304578 0.000000 0.000000 0.000000 -113.064254 -35.742465 169.895409 -79.166537 17.834727 -21.102853 42.646366 7.032725 -4.504244 19.011929 3.269997 18.129474 2.141255 -1.207207 -0.701216 0.000000 0.000000 0.000000 -115.441754 -35.304066 174.733137 19.926133 2.148120 0.154404 1.237104 4.043017 6.785498 1.220283 -2.052727 1.951966 0.000000 0.000000 0.000000 1.995098 4.490314 5.125666 16.909699 2.767341 5.603710 11.570031 26.414414 -16.213720 0.000000 0.000000 0.000000 1.921709 4.263926 6.159791 3.133381 -2.723789 -0.556943 4.560803 4.945212 -3.110632 -10.421767 28.607394 0.006822 2.391787 -67.320503 -1.434425 0.000000 0.000000 0.000000 -0.301603 4.700715 6.341735 3.302635 6.351633 21.011207 -1.895469 -0.471518 1.213930 -21.519069 14.759023 28.330815 -2.306651 58.199448 3.833441 0.000000 0.000000 0.000000 
141.363602 50.904305 255.392136 0.000000 0.000000 0.000000 -115.235974 -20.306733 174.260638 -36.019491 22.089783 21.631911 59.892194 1.310335 -2.175376 -6.352651 7.529843 -4.365496 0.841468 0.751611 -0.178493 0.000000 0.000000 0.000000 -111.648171 -24.201952 170.024732 -91.764268 19.305000 -10.537502 43.405596 6.707825 -4.874367 22.031614 6.686736 18.638668 4.458483 -1.255681 -0.672038 0.000000 0.000000 0.000000 -113.225870 -24.553698 176.834199 20.674400 0.099503 0.058468 2.122403 3.958802 7.243486 1.251824 -4.205486 1.125913 0.000000 0.000000 0.000000 2.513929 4.658688 5.756633 17.314625 1.862454 5.615643 10.696551 22.150146 -14.604095 0.000000 0.000000 0.000000 2.490605 4.429999 6.822213 3.862075 -3.097016 -4.009673 5.419764 3.209172 -2.644026 -7.511405 26.764494 -3.257500 4.677711 -71.328663 0.232165 0.000000 0.000000 0.000000 0.350938 4.836957 7.122220 3.476557 3.569947 22.115702 -1.875896 0.901820 0.376404 -21.118984 13.154489 31.435993 -6.636249 64.856328 7.536829 0.000000 0.000000 0.000000 
